<svg width="91" height="101" viewBox="0 0 91 101" fill="none" xmlns="http://www.w3.org/2000/svg">
<path d="M74.1286 11.3655L74.1099 11.3548L74.0907 11.3449C64.2813 6.28696 55.756 4.125 45.5504 4.125C35.4063 4.125 25.7626 6.53384 16.9897 11.3557C16.2826 11.7371 15.3619 11.4909 14.9119 10.7354C14.5268 10.0062 14.8113 9.06272 15.5246 8.67638L15.5255 8.67588C24.7558 3.6637 34.8767 1.08334 45.5504 1.08334C56.1165 1.08334 65.3375 3.40857 75.4918 8.63471C76.2594 9.0349 76.5177 9.93443 76.1311 10.6483L76.1232 10.6627L76.1159 10.6774C75.8291 11.2511 75.3152 11.5363 74.792 11.5363C74.5529 11.5363 74.3221 11.4761 74.1286 11.3655ZM19.9416 19.4255L19.9434 19.4245C35.488 11.4047 55.4144 11.3555 71.0072 19.3747L71.0078 19.3751C78.4271 23.1836 84.6572 28.5725 89.5562 35.451L89.562 35.459C90.0412 36.1179 89.8911 37.0946 89.1947 37.5791C88.4716 38.0821 87.5372 37.9135 87.0575 37.2239L87.0576 37.2239L87.0503 37.2138C82.4224 30.7347 76.5534 25.636 69.6012 22.0825C54.8462 14.525 36.0028 14.5237 21.2951 22.1343C14.2921 25.739 8.4246 30.8882 3.79828 37.365L3.76888 37.4062L3.74377 37.4501C3.5533 37.7835 3.16973 38.005 2.64577 38.005C2.3483 38.005 2.03947 37.9175 1.74738 37.7252C1.06495 37.2446 0.898818 36.3161 1.39759 35.596C6.29743 28.6681 12.5267 23.2318 19.9416 19.4255ZM33.1349 98.4327L33.1173 98.4132L33.0987 98.3946C28.7647 94.0606 26.4568 91.3106 23.1327 85.3073L23.13 85.3024C19.7472 79.2723 17.9641 71.8833 17.9641 63.9108C17.9641 49.5347 30.2757 37.7363 45.4999 37.7363C60.7241 37.7363 73.0358 49.5347 73.0358 63.9108C73.0358 64.7702 72.3743 65.4317 71.5149 65.4317C70.6555 65.4317 69.9941 64.7702 69.9941 63.9108C69.9941 51.1025 58.9524 40.7779 45.4999 40.7779C32.0475 40.7779 21.0058 51.1025 21.0058 63.9108C21.0058 71.3128 22.6498 78.1921 25.8221 83.81C29.1039 89.7066 31.3859 92.2493 35.3024 96.217C35.8797 96.8308 35.8858 97.7661 35.3209 98.3868C34.9455 98.717 34.537 98.8579 34.1562 98.8579C33.748 98.8579 33.376 98.7006 33.1349 98.4327ZM55.2415 85.2191L55.2369 85.216C47.9875 80.302 43.6766 72.3377 43.6766 63.9108C43.6766 63.0515 44.338 62.39 45.1974 62.39C46.0568 62.39 46.7183 63.0515 46.7183 63.9108C46.7183 71.3648 50.5241 78.3749 56.939 82.6876C60.7119 85.2383 65.1003 86.4388 70.3049 86.4388C71.5772 86.4388 73.6516 86.2817 75.7206 85.9197L75.7303 85.9179C76.5334 85.7692 77.3312 86.2992 77.488 87.1775L77.4892 87.1838C77.6379 87.9868 77.1078 88.7846 76.2296 88.9414L76.2295 88.9413L76.2159 88.944C73.4275 89.4821 70.9759 89.5308 70.3049 89.5308C64.4764 89.5308 59.387 88.0632 55.2415 85.2191ZM11.4398 82.4624L11.4428 82.4702C11.7516 83.273 11.3435 84.1311 10.587 84.3929L10.571 84.3985L10.5551 84.4046C9.77486 84.7047 8.89476 84.2772 8.62832 83.5371L8.62839 83.5371L8.62406 83.5255C6.19392 77.0286 5.00702 70.5929 5.00702 63.9108C5.00702 57.9896 6.14149 52.6438 8.33854 48.0051C14.8694 34.306 29.3786 25.3842 45.2983 25.3842C67.7356 25.3842 85.892 42.6814 85.892 63.8604C85.892 71.4329 79.426 77.6829 71.3637 77.6829C63.3014 77.6829 56.8354 71.4329 56.8354 63.8604C56.8354 57.8499 51.633 53.0796 45.3487 53.0796C39.0644 53.0796 33.862 57.8499 33.862 63.8604C33.862 72.7452 37.2938 81.0684 43.5858 87.3084L43.5866 87.3092C48.5066 92.1774 53.2484 94.8808 60.5096 96.8892L60.5174 96.8914L60.5252 96.8934C61.3207 97.0996 61.7911 97.9388 61.5751 98.7409L61.5688 98.7645L61.5636 98.7884C61.4173 99.4613 60.7877 99.9167 60.1712 99.9167C60.1001 99.9167 59.952 99.8936 59.7697 99.8485C51.9132 97.6728 46.8253 94.7799 41.4628 89.5162C34.5956 82.6967 30.8204 73.6263 30.8204 63.9108C30.8204 56.3384 37.2864 50.0883 45.3487 50.0883C53.411 50.0883 59.877 56.3384 59.877 63.9108C59.877 69.9213 65.0793 74.6917 71.3637 74.6917C77.648 74.6917 82.8503 69.9213 82.8503 63.9108C82.8503 44.2959 65.96 28.4763 45.2983 28.4763C30.62 28.4763 17.1467 36.641 11.0712 49.3618C9.03064 53.6004 7.99827 58.5416 7.99827 63.9108C7.99827 67.9229 8.36059 74.251 11.4398 82.4624Z" stroke="#76A1CC" stroke-width="2"/>
</svg>
